<?xml version="1.0" encoding="UTF-8" standalone="no"?><svg xmlns="http://www.w3.org/2000/svg" xmlns:xlink="http://www.w3.org/1999/xlink" contentStyleType="text/css" height="561px" preserveAspectRatio="none" style="width:1655px;height:561px;background:#F9F9F9;" version="1.1" viewBox="0 0 1655 561" width="1655px" zoomAndPan="magnify"><defs/><g><rect fill="#F9F9F9" height="561" style="stroke:none;stroke-width:1.0;" width="1655" x="0" y="0"/><!--MD5=[8f53f25b786c6d9867c9b8a170b9d406]
cluster effects--><g id="cluster_effects"><path d="M9.5,6 L66.5,6 A5.25,5.25 0 0 1 70,9.5 L77,28.2969 L1644.5,28.2969 A3.5,3.5 0 0 1 1648,31.7969 L1648,550.5 A3.5,3.5 0 0 1 1644.5,554 L9.5,554 A3.5,3.5 0 0 1 6,550.5 L6,9.5 A3.5,3.5 0 0 1 9.5,6 " fill="none" style="stroke:#393939;stroke-width:1.0;"/><line style="stroke:#393939;stroke-width:1.0;" x1="6" x2="77" y1="28.2969" y2="28.2969"/><text fill="#000000" font-family="sans-serif" font-size="14" font-weight="bold" lengthAdjust="spacing" textLength="58" x="10" y="20.9951">effects</text></g><!--MD5=[5bc9aca2c891e49143e6736f72733dd2]
class efectos_enum--><g id="elem_efectos_enum"><rect codeLine="7" fill="#F1F1F1" height="162.0781" id="efectos_enum" rx="3.5" ry="3.5" style="stroke:#181818;stroke-width:0.5;" width="167" x="497.5" y="61"/><ellipse cx="527.35" cy="77" fill="#EB937F" rx="11" ry="11" style="stroke:#181818;stroke-width:1.0;"/><path d="M526.1469,77.875 L527.6,77.875 L527.6,77.9844 C527.6,78.3906 527.6313,78.5469 527.7094,78.7031 C527.8656,78.9531 528.1469,79.1094 528.4438,79.1094 C528.6938,79.1094 528.9594,78.9688 529.1156,78.75 C529.2406,78.5938 529.2719,78.4375 529.2719,77.9844 L529.2719,76.0625 C529.2719,75.9063 529.2719,75.8594 529.2563,75.7031 C529.1938,75.2344 528.8813,74.9219 528.4281,74.9219 C528.1781,74.9219 527.9125,75.0625 527.7406,75.2813 C527.6313,75.4531 527.6,75.6094 527.6,76.0625 L527.6,76.1875 L526.1469,76.1875 L526.1469,73.7813 L530.1313,73.7813 L530.1313,74.6406 C530.1313,75.0469 530.1625,75.2188 530.2406,75.375 C530.4125,75.625 530.6938,75.7813 530.975,75.7813 C531.2406,75.7813 531.5063,75.6406 531.6781,75.4219 C531.7875,75.25 531.8188,75.1094 531.8188,74.6406 L531.8188,72.0938 L524.1938,72.0938 C523.7563,72.0938 523.6313,72.1094 523.475,72.2031 C523.225,72.3594 523.0688,72.6563 523.0688,72.9375 C523.0688,73.2188 523.2094,73.4688 523.4281,73.6406 C523.5844,73.75 523.7719,73.7813 524.1938,73.7813 L524.4438,73.7813 L524.4438,80.2969 L524.1938,80.2969 C523.7875,80.2969 523.6313,80.3125 523.475,80.4219 C523.225,80.5938 523.0688,80.8594 523.0688,81.1563 C523.0688,81.4219 523.2094,81.6719 523.4281,81.8281 C523.5688,81.9531 523.8031,82 524.1938,82 L532.1938,82 L532.1938,79.4219 C532.1938,78.9844 532.1625,78.8438 532.0844,78.6875 C531.9125,78.4375 531.6313,78.2813 531.35,78.2813 C531.0844,78.2813 530.8188,78.3906 530.6469,78.6406 C530.5375,78.7969 530.5063,78.9375 530.5063,79.4219 L530.5063,80.2969 L526.1469,80.2969 L526.1469,77.875 Z " fill="#000000"/><text fill="#000000" font-family="sans-serif" font-size="14" lengthAdjust="spacing" textLength="102" x="544.65" y="81.8467">efectos_enum</text><line style="stroke:#181818;stroke-width:0.5;" x1="498.5" x2="663.5" y1="93" y2="93"/><text fill="#000000" font-family="sans-serif" font-size="14" lengthAdjust="spacing" textLength="103" x="503.5" y="109.9951">EFECTO_NONE</text><text fill="#000000" font-family="sans-serif" font-size="14" lengthAdjust="spacing" textLength="102" x="503.5" y="126.292">EFECTO_MUTE</text><text fill="#000000" font-family="sans-serif" font-size="14" lengthAdjust="spacing" textLength="155" x="503.5" y="142.5889">EFECTO_ATENUACION</text><text fill="#000000" font-family="sans-serif" font-size="14" lengthAdjust="spacing" textLength="121" x="503.5" y="158.8857">EFECTO_REVERB</text><text fill="#000000" font-family="sans-serif" font-size="14" lengthAdjust="spacing" textLength="147" x="503.5" y="175.1826">EFECTO_OVERDRIVE</text><text fill="#000000" font-family="sans-serif" font-size="14" lengthAdjust="spacing" textLength="151" x="503.5" y="191.4795">EFECTO_DISTORTION</text><text fill="#000000" font-family="sans-serif" font-size="14" lengthAdjust="spacing" textLength="100" x="503.5" y="207.7764">EFECTO_FUZZ</text><line style="stroke:#181818;stroke-width:1.0;stroke-dasharray:1.0,2.0;" x1="498.5" x2="663.5" y1="215.0781" y2="215.0781"/></g><!--MD5=[74ab9ffb22b0ac89271a2d51b4f83e2b]
class efectos--><g id="elem_efectos"><rect codeLine="18" fill="#F1F1F1" height="162.0781" id="efectos" rx="3.5" ry="3.5" style="stroke:#181818;stroke-width:0.5;" width="199" x="719.5" y="61"/><ellipse cx="787.25" cy="77" fill="#ADD1B2" rx="11" ry="11" style="stroke:#181818;stroke-width:1.0;"/><path d="M789.5938,72.6719 C788.6563,72.2344 788.0625,72.0938 787.1875,72.0938 C784.5625,72.0938 782.5625,74.1719 782.5625,76.8906 L782.5625,78.0156 C782.5625,80.5938 784.6719,82.4844 787.5625,82.4844 C788.7813,82.4844 789.9375,82.1875 790.6875,81.6406 C791.2656,81.2344 791.5938,80.7813 791.5938,80.3906 C791.5938,79.9375 791.2031,79.5469 790.7344,79.5469 C790.5156,79.5469 790.3125,79.625 790.125,79.8125 C789.6719,80.2969 789.6719,80.2969 789.4844,80.3906 C789.0625,80.6563 788.375,80.7813 787.6094,80.7813 C785.5625,80.7813 784.2656,79.6875 784.2656,77.9844 L784.2656,76.8906 C784.2656,75.1094 785.5156,73.7969 787.25,73.7969 C787.8281,73.7969 788.4375,73.9531 788.9063,74.2031 C789.3906,74.4844 789.5625,74.7031 789.6563,75.1094 C789.7188,75.5156 789.75,75.6406 789.8906,75.7656 C790.0313,75.9063 790.2656,76.0156 790.4844,76.0156 C790.75,76.0156 791.0156,75.875 791.1875,75.6563 C791.2969,75.5 791.3281,75.3125 791.3281,74.8906 L791.3281,73.4688 C791.3281,73.0313 791.3125,72.9063 791.2188,72.75 C791.0625,72.4844 790.7813,72.3438 790.4844,72.3438 C790.1875,72.3438 789.9844,72.4375 789.7656,72.75 L789.5938,72.6719 Z " fill="#000000"/><text fill="#000000" font-family="sans-serif" font-size="14" lengthAdjust="spacing" textLength="55" x="807.75" y="81.8467">efectos</text><line style="stroke:#181818;stroke-width:0.5;" x1="720.5" x2="917.5" y1="93" y2="93"/><polygon fill="none" points="730.5,101.6484,734.5,105.6484,730.5,109.6484,726.5,105.6484" style="stroke:#B38D22;stroke-width:1.0;"/><text fill="#000000" font-family="sans-serif" font-size="14" lengthAdjust="spacing" textLength="173" x="739.5" y="109.9951">Nombre : efectos_enum</text><polygon fill="none" points="730.5,117.9453,734.5,121.9453,730.5,125.9453,726.5,121.9453" style="stroke:#B38D22;stroke-width:1.0;"/><text fill="#000000" font-family="sans-serif" font-size="14" lengthAdjust="spacing" textLength="107" x="739.5" y="126.292">params : void *</text><polygon fill="none" points="730.5,134.2422,734.5,138.2422,730.5,142.2422,726.5,138.2422" style="stroke:#B38D22;stroke-width:1.0;"/><text fill="#000000" font-family="sans-serif" font-size="14" lengthAdjust="spacing" textLength="117" x="739.5" y="142.5889">internals : void *</text><line style="stroke:#181818;stroke-width:0.5;" x1="720.5" x2="917.5" y1="149.8906" y2="149.8906"/><ellipse cx="730.5" cy="163.5391" fill="#84BE84" rx="3" ry="3" style="stroke:#038048;stroke-width:1.0;"/><text fill="#000000" font-family="sans-serif" font-size="14" lengthAdjust="spacing" textLength="112" x="739.5" y="166.8857">efecto_create()</text><ellipse cx="730.5" cy="179.8359" fill="#84BE84" rx="3" ry="3" style="stroke:#038048;stroke-width:1.0;"/><text fill="#000000" font-family="sans-serif" font-size="14" lengthAdjust="spacing" textLength="120" x="739.5" y="183.1826">efecto_destroy()</text><ellipse cx="730.5" cy="196.1328" fill="#84BE84" rx="3" ry="3" style="stroke:#038048;stroke-width:1.0;"/><text fill="#000000" font-family="sans-serif" font-size="14" lengthAdjust="spacing" textLength="116" x="739.5" y="199.4795">efecto_update()</text><ellipse cx="730.5" cy="212.4297" fill="#84BE84" rx="3" ry="3" style="stroke:#038048;stroke-width:1.0;"/><text fill="#000000" font-family="sans-serif" font-size="14" lengthAdjust="spacing" textLength="105" x="739.5" y="215.7764">efecto_apply()</text></g><polygon fill="none" points="819,223.0781,826,243.0781,812,243.0781" style="stroke:#191919;stroke-width:1.0;"/><line style="stroke:#191919;stroke-width:1.0;" x1="819" x2="819" y1="243.0781" y2="244"/><line style="stroke:#191919;stroke-width:1.0;" x1="719.5" x2="699.335" y1="142.0066" y2="142"/><!--MD5=[e0faa1a51e1fd40eb39afb045dff9f41]
class efecto_none--><g id="elem_efecto_none"><rect codeLine="28" fill="#F1F1F1" height="141.6328" id="efecto_none" rx="3.5" ry="3.5" style="stroke:#181818;stroke-width:0.5;" width="181" x="22.5" y="349.5"/><ellipse cx="63.6" cy="365.5" fill="#ADD1B2" rx="11" ry="11" style="stroke:#181818;stroke-width:1.0;"/><path d="M65.9438,361.1719 C65.0063,360.7344 64.4125,360.5938 63.5375,360.5938 C60.9125,360.5938 58.9125,362.6719 58.9125,365.3906 L58.9125,366.5156 C58.9125,369.0938 61.0219,370.9844 63.9125,370.9844 C65.1313,370.9844 66.2875,370.6875 67.0375,370.1406 C67.6156,369.7344 67.9438,369.2813 67.9438,368.8906 C67.9438,368.4375 67.5531,368.0469 67.0844,368.0469 C66.8656,368.0469 66.6625,368.125 66.475,368.3125 C66.0219,368.7969 66.0219,368.7969 65.8344,368.8906 C65.4125,369.1563 64.725,369.2813 63.9594,369.2813 C61.9125,369.2813 60.6156,368.1875 60.6156,366.4844 L60.6156,365.3906 C60.6156,363.6094 61.8656,362.2969 63.6,362.2969 C64.1781,362.2969 64.7875,362.4531 65.2563,362.7031 C65.7406,362.9844 65.9125,363.2031 66.0063,363.6094 C66.0688,364.0156 66.1,364.1406 66.2406,364.2656 C66.3813,364.4063 66.6156,364.5156 66.8344,364.5156 C67.1,364.5156 67.3656,364.375 67.5375,364.1563 C67.6469,364 67.6781,363.8125 67.6781,363.3906 L67.6781,361.9688 C67.6781,361.5313 67.6625,361.4063 67.5688,361.25 C67.4125,360.9844 67.1313,360.8438 66.8344,360.8438 C66.5375,360.8438 66.3344,360.9375 66.1156,361.25 L65.9438,361.1719 Z " fill="#000000"/><text fill="#000000" font-family="sans-serif" font-size="14" lengthAdjust="spacing" textLength="91" x="83.4" y="370.3467">efecto_none</text><line style="stroke:#181818;stroke-width:0.5;" x1="23.5" x2="202.5" y1="381.5" y2="381.5"/><line style="stroke:#181818;stroke-width:1.0;stroke-dasharray:1.0,2.0;" x1="23.5" x2="84" y1="397.6484" y2="397.6484"/><text fill="#000000" font-family="sans-serif" font-size="14" lengthAdjust="spacing" textLength="58" x="84" y="401.9951">params:</text><line style="stroke:#181818;stroke-width:1.0;stroke-dasharray:1.0,2.0;" x1="142" x2="202.5" y1="397.6484" y2="397.6484"/><rect fill="none" height="6" style="stroke:#C82930;stroke-width:1.0;" width="6" x="30.5" y="436.8906"/><text fill="#000000" font-family="sans-serif" font-size="14" lengthAdjust="spacing" textLength="15" x="42.5" y="443.2373">ID</text><line style="stroke:#181818;stroke-width:1.0;stroke-dasharray:1.0,2.0;" x1="23.5" x2="81.5" y1="422.0938" y2="422.0938"/><text fill="#000000" font-family="sans-serif" font-size="14" lengthAdjust="spacing" textLength="63" x="81.5" y="426.4404">internals</text><line style="stroke:#181818;stroke-width:1.0;stroke-dasharray:1.0,2.0;" x1="144.5" x2="202.5" y1="422.0938" y2="422.0938"/><line style="stroke:#181818;stroke-width:1.0;" x1="23.5" x2="202.5" y1="450.5391" y2="450.5391"/><rect fill="#F24D5C" height="6" style="stroke:#C82930;stroke-width:1.0;" width="6" x="30.5" y="461.1875"/><text fill="#000000" font-family="sans-serif" font-size="14" lengthAdjust="spacing" textLength="155" x="42.5" y="467.5342">efecto_none_create()</text><rect fill="#F24D5C" height="6" style="stroke:#C82930;stroke-width:1.0;" width="6" x="30.5" y="477.4844"/><text fill="#000000" font-family="sans-serif" font-size="14" lengthAdjust="spacing" textLength="148" x="42.5" y="483.8311">efecto_none_apply()</text></g><!--MD5=[341f040c4d08ec89426084b220bdf752]
class efecto_mute--><g id="elem_efecto_mute"><rect codeLine="37" fill="#F1F1F1" height="141.6328" id="efecto_mute" rx="3.5" ry="3.5" style="stroke:#181818;stroke-width:0.5;" width="183" x="238.5" y="349.5"/><ellipse cx="279.6" cy="365.5" fill="#ADD1B2" rx="11" ry="11" style="stroke:#181818;stroke-width:1.0;"/><path d="M281.9438,361.1719 C281.0063,360.7344 280.4125,360.5938 279.5375,360.5938 C276.9125,360.5938 274.9125,362.6719 274.9125,365.3906 L274.9125,366.5156 C274.9125,369.0938 277.0219,370.9844 279.9125,370.9844 C281.1313,370.9844 282.2875,370.6875 283.0375,370.1406 C283.6156,369.7344 283.9438,369.2813 283.9438,368.8906 C283.9438,368.4375 283.5531,368.0469 283.0844,368.0469 C282.8656,368.0469 282.6625,368.125 282.475,368.3125 C282.0219,368.7969 282.0219,368.7969 281.8344,368.8906 C281.4125,369.1563 280.725,369.2813 279.9594,369.2813 C277.9125,369.2813 276.6156,368.1875 276.6156,366.4844 L276.6156,365.3906 C276.6156,363.6094 277.8656,362.2969 279.6,362.2969 C280.1781,362.2969 280.7875,362.4531 281.2563,362.7031 C281.7406,362.9844 281.9125,363.2031 282.0063,363.6094 C282.0688,364.0156 282.1,364.1406 282.2406,364.2656 C282.3813,364.4063 282.6156,364.5156 282.8344,364.5156 C283.1,364.5156 283.3656,364.375 283.5375,364.1563 C283.6469,364 283.6781,363.8125 283.6781,363.3906 L283.6781,361.9688 C283.6781,361.5313 283.6625,361.4063 283.5688,361.25 C283.4125,360.9844 283.1313,360.8438 282.8344,360.8438 C282.5375,360.8438 282.3344,360.9375 282.1156,361.25 L281.9438,361.1719 Z " fill="#000000"/><text fill="#000000" font-family="sans-serif" font-size="14" lengthAdjust="spacing" textLength="93" x="299.4" y="370.3467">efecto_mute</text><line style="stroke:#181818;stroke-width:0.5;" x1="239.5" x2="420.5" y1="381.5" y2="381.5"/><line style="stroke:#181818;stroke-width:1.0;stroke-dasharray:1.0,2.0;" x1="239.5" x2="301" y1="397.6484" y2="397.6484"/><text fill="#000000" font-family="sans-serif" font-size="14" lengthAdjust="spacing" textLength="58" x="301" y="401.9951">params:</text><line style="stroke:#181818;stroke-width:1.0;stroke-dasharray:1.0,2.0;" x1="359" x2="420.5" y1="397.6484" y2="397.6484"/><rect fill="none" height="6" style="stroke:#C82930;stroke-width:1.0;" width="6" x="246.5" y="436.8906"/><text fill="#000000" font-family="sans-serif" font-size="14" lengthAdjust="spacing" textLength="15" x="258.5" y="443.2373">ID</text><line style="stroke:#181818;stroke-width:1.0;stroke-dasharray:1.0,2.0;" x1="239.5" x2="298.5" y1="422.0938" y2="422.0938"/><text fill="#000000" font-family="sans-serif" font-size="14" lengthAdjust="spacing" textLength="63" x="298.5" y="426.4404">internals</text><line style="stroke:#181818;stroke-width:1.0;stroke-dasharray:1.0,2.0;" x1="361.5" x2="420.5" y1="422.0938" y2="422.0938"/><line style="stroke:#181818;stroke-width:1.0;" x1="239.5" x2="420.5" y1="450.5391" y2="450.5391"/><rect fill="#F24D5C" height="6" style="stroke:#C82930;stroke-width:1.0;" width="6" x="246.5" y="461.1875"/><text fill="#000000" font-family="sans-serif" font-size="14" lengthAdjust="spacing" textLength="157" x="258.5" y="467.5342">efecto_mute_create()</text><rect fill="#F24D5C" height="6" style="stroke:#C82930;stroke-width:1.0;" width="6" x="246.5" y="477.4844"/><text fill="#000000" font-family="sans-serif" font-size="14" lengthAdjust="spacing" textLength="150" x="258.5" y="483.8311">efecto_mute_apply()</text></g><!--MD5=[47e5d5d16f6ea8c4bed5a10fbdd92b4e]
class efecto_atenuacion--><g id="elem_efecto_atenuacion"><rect codeLine="46" fill="#F1F1F1" height="170.0781" id="efecto_atenuacion" rx="3.5" ry="3.5" style="stroke:#181818;stroke-width:0.5;" width="228" x="457" y="335.5"/><ellipse cx="499.9" cy="351.5" fill="#ADD1B2" rx="11" ry="11" style="stroke:#181818;stroke-width:1.0;"/><path d="M502.2438,347.1719 C501.3063,346.7344 500.7125,346.5938 499.8375,346.5938 C497.2125,346.5938 495.2125,348.6719 495.2125,351.3906 L495.2125,352.5156 C495.2125,355.0938 497.3219,356.9844 500.2125,356.9844 C501.4313,356.9844 502.5875,356.6875 503.3375,356.1406 C503.9156,355.7344 504.2438,355.2813 504.2438,354.8906 C504.2438,354.4375 503.8531,354.0469 503.3844,354.0469 C503.1656,354.0469 502.9625,354.125 502.775,354.3125 C502.3219,354.7969 502.3219,354.7969 502.1344,354.8906 C501.7125,355.1563 501.025,355.2813 500.2594,355.2813 C498.2125,355.2813 496.9156,354.1875 496.9156,352.4844 L496.9156,351.3906 C496.9156,349.6094 498.1656,348.2969 499.9,348.2969 C500.4781,348.2969 501.0875,348.4531 501.5563,348.7031 C502.0406,348.9844 502.2125,349.2031 502.3063,349.6094 C502.3688,350.0156 502.4,350.1406 502.5406,350.2656 C502.6813,350.4063 502.9156,350.5156 503.1344,350.5156 C503.4,350.5156 503.6656,350.375 503.8375,350.1563 C503.9469,350 503.9781,349.8125 503.9781,349.3906 L503.9781,347.9688 C503.9781,347.5313 503.9625,347.4063 503.8688,347.25 C503.7125,346.9844 503.4313,346.8438 503.1344,346.8438 C502.8375,346.8438 502.6344,346.9375 502.4156,347.25 L502.2438,347.1719 Z " fill="#000000"/><text fill="#000000" font-family="sans-serif" font-size="14" lengthAdjust="spacing" textLength="134" x="520.1" y="356.3467">efecto_atenuacion</text><line style="stroke:#181818;stroke-width:0.5;" x1="458" x2="684" y1="367.5" y2="367.5"/><rect fill="none" height="6" style="stroke:#C82930;stroke-width:1.0;" width="6" x="465" y="398.4453"/><text fill="#000000" font-family="sans-serif" font-size="14" lengthAdjust="spacing" textLength="79" x="477" y="404.792">atenuacion</text><line style="stroke:#181818;stroke-width:1.0;stroke-dasharray:1.0,2.0;" x1="458" x2="542" y1="383.6484" y2="383.6484"/><text fill="#000000" font-family="sans-serif" font-size="14" lengthAdjust="spacing" textLength="58" x="542" y="387.9951">params:</text><line style="stroke:#181818;stroke-width:1.0;stroke-dasharray:1.0,2.0;" x1="600" x2="684" y1="383.6484" y2="383.6484"/><rect fill="none" height="6" style="stroke:#C82930;stroke-width:1.0;" width="6" x="465" y="435.0391"/><text fill="#000000" font-family="sans-serif" font-size="14" lengthAdjust="spacing" textLength="15" x="477" y="441.3857">ID</text><line style="stroke:#181818;stroke-width:1.0;stroke-dasharray:1.0,2.0;" x1="458" x2="539.5" y1="420.2422" y2="420.2422"/><text fill="#000000" font-family="sans-serif" font-size="14" lengthAdjust="spacing" textLength="63" x="539.5" y="424.5889">internals</text><line style="stroke:#181818;stroke-width:1.0;stroke-dasharray:1.0,2.0;" x1="602.5" x2="684" y1="420.2422" y2="420.2422"/><line style="stroke:#181818;stroke-width:1.0;" x1="458" x2="684" y1="448.6875" y2="448.6875"/><rect fill="#F24D5C" height="6" style="stroke:#C82930;stroke-width:1.0;" width="6" x="465" y="459.3359"/><text fill="#000000" font-family="sans-serif" font-size="14" lengthAdjust="spacing" textLength="198" x="477" y="465.6826">efecto_atenuacion_create()</text><rect fill="#F24D5C" height="6" style="stroke:#C82930;stroke-width:1.0;" width="6" x="465" y="475.6328"/><text fill="#000000" font-family="sans-serif" font-size="14" lengthAdjust="spacing" textLength="202" x="477" y="481.9795">efecto_atenuacion_update()</text><rect fill="#F24D5C" height="6" style="stroke:#C82930;stroke-width:1.0;" width="6" x="465" y="491.9297"/><text fill="#000000" font-family="sans-serif" font-size="14" lengthAdjust="spacing" textLength="191" x="477" y="498.2764">efecto_atenuacion_apply()</text></g><!--MD5=[0f627da88aea43def0b0b93557a6a442]
class efecto_reverb--><g id="elem_efecto_reverb"><rect codeLine="57" fill="#F1F1F1" height="202.6719" id="efecto_reverb" rx="3.5" ry="3.5" style="stroke:#181818;stroke-width:0.5;" width="197" x="720.5" y="319"/><ellipse cx="763.4" cy="335" fill="#ADD1B2" rx="11" ry="11" style="stroke:#181818;stroke-width:1.0;"/><path d="M765.7438,330.6719 C764.8063,330.2344 764.2125,330.0938 763.3375,330.0938 C760.7125,330.0938 758.7125,332.1719 758.7125,334.8906 L758.7125,336.0156 C758.7125,338.5938 760.8219,340.4844 763.7125,340.4844 C764.9313,340.4844 766.0875,340.1875 766.8375,339.6406 C767.4156,339.2344 767.7438,338.7813 767.7438,338.3906 C767.7438,337.9375 767.3531,337.5469 766.8844,337.5469 C766.6656,337.5469 766.4625,337.625 766.275,337.8125 C765.8219,338.2969 765.8219,338.2969 765.6344,338.3906 C765.2125,338.6563 764.525,338.7813 763.7594,338.7813 C761.7125,338.7813 760.4156,337.6875 760.4156,335.9844 L760.4156,334.8906 C760.4156,333.1094 761.6656,331.7969 763.4,331.7969 C763.9781,331.7969 764.5875,331.9531 765.0563,332.2031 C765.5406,332.4844 765.7125,332.7031 765.8063,333.1094 C765.8688,333.5156 765.9,333.6406 766.0406,333.7656 C766.1813,333.9063 766.4156,334.0156 766.6344,334.0156 C766.9,334.0156 767.1656,333.875 767.3375,333.6563 C767.4469,333.5 767.4781,333.3125 767.4781,332.8906 L767.4781,331.4688 C767.4781,331.0313 767.4625,330.9063 767.3688,330.75 C767.2125,330.4844 766.9313,330.3438 766.6344,330.3438 C766.3375,330.3438 766.1344,330.4375 765.9156,330.75 L765.7438,330.6719 Z " fill="#000000"/><text fill="#000000" font-family="sans-serif" font-size="14" lengthAdjust="spacing" textLength="103" x="783.6" y="339.8467">efecto_reverb</text><line style="stroke:#181818;stroke-width:0.5;" x1="721.5" x2="916.5" y1="351" y2="351"/><rect fill="none" height="6" style="stroke:#C82930;stroke-width:1.0;" width="6" x="728.5" y="381.9453"/><text fill="#000000" font-family="sans-serif" font-size="14" lengthAdjust="spacing" textLength="30" x="740.5" y="388.292">gain</text><line style="stroke:#181818;stroke-width:1.0;stroke-dasharray:1.0,2.0;" x1="721.5" x2="790" y1="367.1484" y2="367.1484"/><text fill="#000000" font-family="sans-serif" font-size="14" lengthAdjust="spacing" textLength="58" x="790" y="371.4951">params:</text><line style="stroke:#181818;stroke-width:1.0;stroke-dasharray:1.0,2.0;" x1="848" x2="916.5" y1="367.1484" y2="367.1484"/><rect fill="none" height="6" style="stroke:#C82930;stroke-width:1.0;" width="6" x="728.5" y="418.5391"/><text fill="#000000" font-family="sans-serif" font-size="14" lengthAdjust="spacing" textLength="15" x="740.5" y="424.8857">ID</text><rect fill="none" height="6" style="stroke:#C82930;stroke-width:1.0;" width="6" x="728.5" y="434.8359"/><text fill="#000000" font-family="sans-serif" font-size="14" lengthAdjust="spacing" textLength="44" x="740.5" y="441.1826">z[640]</text><rect fill="none" height="6" style="stroke:#C82930;stroke-width:1.0;" width="6" x="728.5" y="451.1328"/><text fill="#000000" font-family="sans-serif" font-size="14" lengthAdjust="spacing" textLength="39" x="740.5" y="457.4795">index</text><line style="stroke:#181818;stroke-width:1.0;stroke-dasharray:1.0,2.0;" x1="721.5" x2="787.5" y1="403.7422" y2="403.7422"/><text fill="#000000" font-family="sans-serif" font-size="14" lengthAdjust="spacing" textLength="63" x="787.5" y="408.0889">internals</text><line style="stroke:#181818;stroke-width:1.0;stroke-dasharray:1.0,2.0;" x1="850.5" x2="916.5" y1="403.7422" y2="403.7422"/><line style="stroke:#181818;stroke-width:1.0;" x1="721.5" x2="916.5" y1="464.7813" y2="464.7813"/><rect fill="#F24D5C" height="6" style="stroke:#C82930;stroke-width:1.0;" width="6" x="728.5" y="475.4297"/><text fill="#000000" font-family="sans-serif" font-size="14" lengthAdjust="spacing" textLength="167" x="740.5" y="481.7764">efecto_reverb_create()</text><rect fill="#F24D5C" height="6" style="stroke:#C82930;stroke-width:1.0;" width="6" x="728.5" y="491.7266"/><text fill="#000000" font-family="sans-serif" font-size="14" lengthAdjust="spacing" textLength="171" x="740.5" y="498.0732">efecto_reverb_update()</text><rect fill="#F24D5C" height="6" style="stroke:#C82930;stroke-width:1.0;" width="6" x="728.5" y="508.0234"/><text fill="#000000" font-family="sans-serif" font-size="14" lengthAdjust="spacing" textLength="160" x="740.5" y="514.3701">efecto_reverb_apply()</text></g><!--MD5=[c16331f5b298e285f2f263dfe0170ffc]
class efecto_overdrive--><g id="elem_efecto_overdrive"><rect codeLine="70" fill="#F1F1F1" height="141.6328" id="efecto_overdrive" rx="3.5" ry="3.5" style="stroke:#181818;stroke-width:0.5;" width="213" x="952.5" y="349.5"/><ellipse cx="993.6" cy="365.5" fill="#ADD1B2" rx="11" ry="11" style="stroke:#181818;stroke-width:1.0;"/><path d="M995.9438,361.1719 C995.0063,360.7344 994.4125,360.5938 993.5375,360.5938 C990.9125,360.5938 988.9125,362.6719 988.9125,365.3906 L988.9125,366.5156 C988.9125,369.0938 991.0219,370.9844 993.9125,370.9844 C995.1313,370.9844 996.2875,370.6875 997.0375,370.1406 C997.6156,369.7344 997.9438,369.2813 997.9438,368.8906 C997.9438,368.4375 997.5531,368.0469 997.0844,368.0469 C996.8656,368.0469 996.6625,368.125 996.475,368.3125 C996.0219,368.7969 996.0219,368.7969 995.8344,368.8906 C995.4125,369.1563 994.725,369.2813 993.9594,369.2813 C991.9125,369.2813 990.6156,368.1875 990.6156,366.4844 L990.6156,365.3906 C990.6156,363.6094 991.8656,362.2969 993.6,362.2969 C994.1781,362.2969 994.7875,362.4531 995.2563,362.7031 C995.7406,362.9844 995.9125,363.2031 996.0063,363.6094 C996.0688,364.0156 996.1,364.1406 996.2406,364.2656 C996.3813,364.4063 996.6156,364.5156 996.8344,364.5156 C997.1,364.5156 997.3656,364.375 997.5375,364.1563 C997.6469,364 997.6781,363.8125 997.6781,363.3906 L997.6781,361.9688 C997.6781,361.5313 997.6625,361.4063 997.5688,361.25 C997.4125,360.9844 997.1313,360.8438 996.8344,360.8438 C996.5375,360.8438 996.3344,360.9375 996.1156,361.25 L995.9438,361.1719 Z " fill="#000000"/><text fill="#000000" font-family="sans-serif" font-size="14" lengthAdjust="spacing" textLength="123" x="1013.4" y="370.3467">efecto_overdrive</text><line style="stroke:#181818;stroke-width:0.5;" x1="953.5" x2="1164.5" y1="381.5" y2="381.5"/><line style="stroke:#181818;stroke-width:1.0;stroke-dasharray:1.0,2.0;" x1="953.5" x2="1030" y1="397.6484" y2="397.6484"/><text fill="#000000" font-family="sans-serif" font-size="14" lengthAdjust="spacing" textLength="58" x="1030" y="401.9951">params:</text><line style="stroke:#181818;stroke-width:1.0;stroke-dasharray:1.0,2.0;" x1="1088" x2="1164.5" y1="397.6484" y2="397.6484"/><rect fill="none" height="6" style="stroke:#C82930;stroke-width:1.0;" width="6" x="960.5" y="436.8906"/><text fill="#000000" font-family="sans-serif" font-size="14" lengthAdjust="spacing" textLength="15" x="972.5" y="443.2373">ID</text><line style="stroke:#181818;stroke-width:1.0;stroke-dasharray:1.0,2.0;" x1="953.5" x2="1027.5" y1="422.0938" y2="422.0938"/><text fill="#000000" font-family="sans-serif" font-size="14" lengthAdjust="spacing" textLength="63" x="1027.5" y="426.4404">internals</text><line style="stroke:#181818;stroke-width:1.0;stroke-dasharray:1.0,2.0;" x1="1090.5" x2="1164.5" y1="422.0938" y2="422.0938"/><line style="stroke:#181818;stroke-width:1.0;" x1="953.5" x2="1164.5" y1="450.5391" y2="450.5391"/><rect fill="#F24D5C" height="6" style="stroke:#C82930;stroke-width:1.0;" width="6" x="960.5" y="461.1875"/><text fill="#000000" font-family="sans-serif" font-size="14" lengthAdjust="spacing" textLength="187" x="972.5" y="467.5342">efecto_overdrive_create()</text><rect fill="#F24D5C" height="6" style="stroke:#C82930;stroke-width:1.0;" width="6" x="960.5" y="477.4844"/><text fill="#000000" font-family="sans-serif" font-size="14" lengthAdjust="spacing" textLength="180" x="972.5" y="483.8311">efecto_overdrive_apply()</text></g><!--MD5=[76a93c05087948b3a3d5a56420933162]
class efecto_distortion--><g id="elem_efecto_distortion"><rect codeLine="79" fill="#F1F1F1" height="170.0781" id="efecto_distortion" rx="3.5" ry="3.5" style="stroke:#181818;stroke-width:0.5;" width="216" x="1201" y="335.5"/><ellipse cx="1242.1" cy="351.5" fill="#ADD1B2" rx="11" ry="11" style="stroke:#181818;stroke-width:1.0;"/><path d="M1244.4438,347.1719 C1243.5063,346.7344 1242.9125,346.5938 1242.0375,346.5938 C1239.4125,346.5938 1237.4125,348.6719 1237.4125,351.3906 L1237.4125,352.5156 C1237.4125,355.0938 1239.5219,356.9844 1242.4125,356.9844 C1243.6313,356.9844 1244.7875,356.6875 1245.5375,356.1406 C1246.1156,355.7344 1246.4438,355.2813 1246.4438,354.8906 C1246.4438,354.4375 1246.0531,354.0469 1245.5844,354.0469 C1245.3656,354.0469 1245.1625,354.125 1244.975,354.3125 C1244.5219,354.7969 1244.5219,354.7969 1244.3344,354.8906 C1243.9125,355.1563 1243.225,355.2813 1242.4594,355.2813 C1240.4125,355.2813 1239.1156,354.1875 1239.1156,352.4844 L1239.1156,351.3906 C1239.1156,349.6094 1240.3656,348.2969 1242.1,348.2969 C1242.6781,348.2969 1243.2875,348.4531 1243.7563,348.7031 C1244.2406,348.9844 1244.4125,349.2031 1244.5063,349.6094 C1244.5688,350.0156 1244.6,350.1406 1244.7406,350.2656 C1244.8813,350.4063 1245.1156,350.5156 1245.3344,350.5156 C1245.6,350.5156 1245.8656,350.375 1246.0375,350.1563 C1246.1469,350 1246.1781,349.8125 1246.1781,349.3906 L1246.1781,347.9688 C1246.1781,347.5313 1246.1625,347.4063 1246.0688,347.25 C1245.9125,346.9844 1245.6313,346.8438 1245.3344,346.8438 C1245.0375,346.8438 1244.8344,346.9375 1244.6156,347.25 L1244.4438,347.1719 Z " fill="#000000"/><text fill="#000000" font-family="sans-serif" font-size="14" lengthAdjust="spacing" textLength="126" x="1261.9" y="356.3467">efecto_distortion</text><line style="stroke:#181818;stroke-width:0.5;" x1="1202" x2="1416" y1="367.5" y2="367.5"/><rect fill="none" height="6" style="stroke:#C82930;stroke-width:1.0;" width="6" x="1209" y="398.4453"/><text fill="#000000" font-family="sans-serif" font-size="14" lengthAdjust="spacing" textLength="35" x="1221" y="404.792">gain;</text><rect fill="none" height="6" style="stroke:#C82930;stroke-width:1.0;" width="6" x="1209" y="414.7422"/><text fill="#000000" font-family="sans-serif" font-size="14" lengthAdjust="spacing" textLength="31" x="1221" y="421.0889">mix;</text><line style="stroke:#181818;stroke-width:1.0;stroke-dasharray:1.0,2.0;" x1="1202" x2="1280" y1="383.6484" y2="383.6484"/><text fill="#000000" font-family="sans-serif" font-size="14" lengthAdjust="spacing" textLength="58" x="1280" y="387.9951">params:</text><line style="stroke:#181818;stroke-width:1.0;stroke-dasharray:1.0,2.0;" x1="1338" x2="1416" y1="383.6484" y2="383.6484"/><rect fill="none" height="6" style="stroke:#C82930;stroke-width:1.0;" width="6" x="1209" y="451.3359"/><text fill="#000000" font-family="sans-serif" font-size="14" lengthAdjust="spacing" textLength="15" x="1221" y="457.6826">ID</text><line style="stroke:#181818;stroke-width:1.0;stroke-dasharray:1.0,2.0;" x1="1202" x2="1277.5" y1="436.5391" y2="436.5391"/><text fill="#000000" font-family="sans-serif" font-size="14" lengthAdjust="spacing" textLength="63" x="1277.5" y="440.8857">internals</text><line style="stroke:#181818;stroke-width:1.0;stroke-dasharray:1.0,2.0;" x1="1340.5" x2="1416" y1="436.5391" y2="436.5391"/><line style="stroke:#181818;stroke-width:1.0;" x1="1202" x2="1416" y1="464.9844" y2="464.9844"/><rect fill="#F24D5C" height="6" style="stroke:#C82930;stroke-width:1.0;" width="6" x="1209" y="475.6328"/><text fill="#000000" font-family="sans-serif" font-size="14" lengthAdjust="spacing" textLength="190" x="1221" y="481.9795">efecto_distortion_create()</text><rect fill="#F24D5C" height="6" style="stroke:#C82930;stroke-width:1.0;" width="6" x="1209" y="491.9297"/><text fill="#000000" font-family="sans-serif" font-size="14" lengthAdjust="spacing" textLength="183" x="1221" y="498.2764">efecto_distortion_apply()</text></g><!--MD5=[dfb21cc878de283c77ef43ccedab7453]
class efecto_fuzz--><g id="elem_efecto_fuzz"><rect codeLine="90" fill="#F1F1F1" height="235.2656" id="efecto_fuzz" rx="3.5" ry="3.5" style="stroke:#181818;stroke-width:0.5;" width="179" x="1452.5" y="303"/><ellipse cx="1495.4" cy="319" fill="#ADD1B2" rx="11" ry="11" style="stroke:#181818;stroke-width:1.0;"/><path d="M1497.7438,314.6719 C1496.8063,314.2344 1496.2125,314.0938 1495.3375,314.0938 C1492.7125,314.0938 1490.7125,316.1719 1490.7125,318.8906 L1490.7125,320.0156 C1490.7125,322.5938 1492.8219,324.4844 1495.7125,324.4844 C1496.9313,324.4844 1498.0875,324.1875 1498.8375,323.6406 C1499.4156,323.2344 1499.7438,322.7813 1499.7438,322.3906 C1499.7438,321.9375 1499.3531,321.5469 1498.8844,321.5469 C1498.6656,321.5469 1498.4625,321.625 1498.275,321.8125 C1497.8219,322.2969 1497.8219,322.2969 1497.6344,322.3906 C1497.2125,322.6563 1496.525,322.7813 1495.7594,322.7813 C1493.7125,322.7813 1492.4156,321.6875 1492.4156,319.9844 L1492.4156,318.8906 C1492.4156,317.1094 1493.6656,315.7969 1495.4,315.7969 C1495.9781,315.7969 1496.5875,315.9531 1497.0563,316.2031 C1497.5406,316.4844 1497.7125,316.7031 1497.8063,317.1094 C1497.8688,317.5156 1497.9,317.6406 1498.0406,317.7656 C1498.1813,317.9063 1498.4156,318.0156 1498.6344,318.0156 C1498.9,318.0156 1499.1656,317.875 1499.3375,317.6563 C1499.4469,317.5 1499.4781,317.3125 1499.4781,316.8906 L1499.4781,315.4688 C1499.4781,315.0313 1499.4625,314.9063 1499.3688,314.75 C1499.2125,314.4844 1498.9313,314.3438 1498.6344,314.3438 C1498.3375,314.3438 1498.1344,314.4375 1497.9156,314.75 L1497.7438,314.6719 Z " fill="#000000"/><text fill="#000000" font-family="sans-serif" font-size="14" lengthAdjust="spacing" textLength="85" x="1515.6" y="323.8467">efecto_fuzz</text><line style="stroke:#181818;stroke-width:0.5;" x1="1453.5" x2="1630.5" y1="335" y2="335"/><rect fill="none" height="6" style="stroke:#C82930;stroke-width:1.0;" width="6" x="1460.5" y="365.9453"/><text fill="#000000" font-family="sans-serif" font-size="14" lengthAdjust="spacing" textLength="35" x="1472.5" y="372.292">gain;</text><rect fill="none" height="6" style="stroke:#C82930;stroke-width:1.0;" width="6" x="1460.5" y="382.2422"/><text fill="#000000" font-family="sans-serif" font-size="14" lengthAdjust="spacing" textLength="31" x="1472.5" y="388.5889">mix;</text><rect fill="none" height="6" style="stroke:#C82930;stroke-width:1.0;" width="6" x="1460.5" y="398.5391"/><text fill="#000000" font-family="sans-serif" font-size="14" lengthAdjust="spacing" textLength="82" x="1472.5" y="404.8857">max_abs_x;</text><rect fill="none" height="6" style="stroke:#C82930;stroke-width:1.0;" width="6" x="1460.5" y="414.8359"/><text fill="#000000" font-family="sans-serif" font-size="14" lengthAdjust="spacing" textLength="82" x="1472.5" y="421.1826">max_abs_y;</text><rect fill="none" height="6" style="stroke:#C82930;stroke-width:1.0;" width="6" x="1460.5" y="431.1328"/><text fill="#000000" font-family="sans-serif" font-size="14" lengthAdjust="spacing" textLength="82" x="1472.5" y="437.4795">max_abs_z;</text><line style="stroke:#181818;stroke-width:1.0;stroke-dasharray:1.0,2.0;" x1="1453.5" x2="1513" y1="351.1484" y2="351.1484"/><text fill="#000000" font-family="sans-serif" font-size="14" lengthAdjust="spacing" textLength="58" x="1513" y="355.4951">params:</text><line style="stroke:#181818;stroke-width:1.0;stroke-dasharray:1.0,2.0;" x1="1571" x2="1630.5" y1="351.1484" y2="351.1484"/><rect fill="none" height="6" style="stroke:#C82930;stroke-width:1.0;" width="6" x="1460.5" y="467.7266"/><text fill="#000000" font-family="sans-serif" font-size="14" lengthAdjust="spacing" textLength="15" x="1472.5" y="474.0732">ID</text><line style="stroke:#181818;stroke-width:1.0;stroke-dasharray:1.0,2.0;" x1="1453.5" x2="1510.5" y1="452.9297" y2="452.9297"/><text fill="#000000" font-family="sans-serif" font-size="14" lengthAdjust="spacing" textLength="63" x="1510.5" y="457.2764">internals</text><line style="stroke:#181818;stroke-width:1.0;stroke-dasharray:1.0,2.0;" x1="1573.5" x2="1630.5" y1="452.9297" y2="452.9297"/><line style="stroke:#181818;stroke-width:1.0;" x1="1453.5" x2="1630.5" y1="481.375" y2="481.375"/><rect fill="#F24D5C" height="6" style="stroke:#C82930;stroke-width:1.0;" width="6" x="1460.5" y="492.0234"/><text fill="#000000" font-family="sans-serif" font-size="14" lengthAdjust="spacing" textLength="149" x="1472.5" y="498.3701">efecto_fuzz_create()</text><rect fill="#F24D5C" height="6" style="stroke:#C82930;stroke-width:1.0;" width="6" x="1460.5" y="508.3203"/><text fill="#000000" font-family="sans-serif" font-size="14" lengthAdjust="spacing" textLength="153" x="1472.5" y="514.667">efecto_fuzz_update()</text><rect fill="#F24D5C" height="6" style="stroke:#C82930;stroke-width:1.0;" width="6" x="1460.5" y="524.6172"/><text fill="#000000" font-family="sans-serif" font-size="14" lengthAdjust="spacing" textLength="142" x="1472.5" y="530.9639">efecto_fuzz_apply()</text></g><!--MD5=[a762623c3ce723b548bcd8b97612c964]
link efectos_enum to efectos--><g id="link_efectos_enum_efectos"><path codeLine="105" d="M664.672,142 C676.226,142 687.781,142 699.335,142 " fill="none" id="efectos_enum-efectos" style="stroke:#191919;stroke-width:1.0;"/></g><!--MD5=[5421969fae82d18406b99f5adef34dab]
reverse link efectos to efecto_none--><g id="link_efectos_efecto_none"><path codeLine="106" d="M819,244 C819,244 340.607,243.623 221,303 C199.014,313.915 179.262,331.321 162.848,349.386 " fill="none" id="efectos-backto-efecto_none" style="stroke:#191919;stroke-width:1.0;"/></g><!--MD5=[a5fda9fa7f996877d28071c23ad0b653]
reverse link efectos to efecto_mute--><g id="link_efectos_efecto_mute"><path codeLine="107" d="M819,244 C819,244 515.436,263.318 440,303 C418.459,314.332 398.792,331.527 382.235,349.254 " fill="none" id="efectos-backto-efecto_mute" style="stroke:#191919;stroke-width:1.0;"/></g><!--MD5=[291912a8e7e4af8b43d6e78dfbcf5142]
reverse link efectos to efecto_atenuacion--><g id="link_efectos_efecto_atenuacion"><path codeLine="108" d="M819,244 C819,244 750.842,270.493 703,303 C688.716,312.706 674.307,323.802 660.525,335.202 " fill="none" id="efectos-backto-efecto_atenuacion" style="stroke:#191919;stroke-width:1.0;"/></g><!--MD5=[eca46ceed31618b09c9c0ebc12c4508f]
reverse link efectos to efecto_reverb--><g id="link_efectos_efecto_reverb"><path codeLine="109" d="M819,244 C819,244 819,279.724 819,318.937 " fill="none" id="efectos-backto-efecto_reverb" style="stroke:#191919;stroke-width:1.0;"/></g><!--MD5=[5eea89ed20847eaf8edb4e214d073d31]
reverse link efectos to efecto_overdrive--><g id="link_efectos_efecto_overdrive"><path codeLine="110" d="M819,244 C819,244 887.669,269.752 935,303 C954.337,316.583 973.697,333.054 991.18,349.281 " fill="none" id="efectos-backto-efecto_overdrive" style="stroke:#191919;stroke-width:1.0;"/></g><!--MD5=[3082b907c9885d425f571777b66ae6b0]
reverse link efectos to efecto_distortion--><g id="link_efectos_efecto_distortion"><path codeLine="111" d="M819,244 C819,244 1035.67,231.203 1183,303 C1200.14,311.353 1216.59,322.811 1231.61,335.299 " fill="none" id="efectos-backto-efecto_distortion" style="stroke:#191919;stroke-width:1.0;"/></g><!--MD5=[01621bbbb14dfe35cf03aeb68ac41555]
reverse link efectos to efecto_fuzz--><g id="link_efectos_efecto_fuzz"><path codeLine="112" d="M819,244 C819,244 1311.88,241.743 1435,303 C1440.9,305.936 1446.64,309.345 1452.18,313.114 " fill="none" id="efectos-backto-efecto_fuzz" style="stroke:#191919;stroke-width:1.0;"/></g><!--MD5=[09cacf347d79f0f17c446002ec889fb3]
@startuml
!theme mars

skinparam groupInheritance 3

package effects{
  
enum efectos_enum{
    EFECTO_NONE
    EFECTO_MUTE
    EFECTO_ATENUACION
    EFECTO_REVERB
    EFECTO_OVERDRIVE
    EFECTO_DISTORTION
    EFECTO_FUZZ
..
}

class efectos {
 #Nombre : efectos_enum
 #params : void *
 #internals : void * 
 +efecto_create()
 +efecto_destroy()
 +efecto_update()
 +efecto_apply()
}

class efecto_none {
 ..params:..
 ..internals..
 -ID
 - -
 -efecto_none_create()
 -efecto_none_apply()
}

class efecto_mute {
 ..params:..
 ..internals..
 -ID
 - -
 -efecto_mute_create()
 -efecto_mute_apply()
}

class efecto_atenuacion {
 ..params:..
 -atenuacion
 ..internals..
 -ID
 - -
 -efecto_atenuacion_create()
 -efecto_atenuacion_update()
 -efecto_atenuacion_apply()
}

class efecto_reverb {
 ..params:..
 -gain
 ..internals..
 -ID
 -z[640]
 -index
 - -
 -efecto_reverb_create()
 -efecto_reverb_update()
 -efecto_reverb_apply()
}

class efecto_overdrive {
 ..params:..
 ..internals..
 -ID
 - -
 -efecto_overdrive_create()
 -efecto_overdrive_apply()
}

class efecto_distortion {
 ..params:..
 -gain;            
 -mix;  
 ..internals..
 -ID
 - -
 -efecto_distortion_create()
 -efecto_distortion_apply()
}

class efecto_fuzz {
 ..params:..
 -gain;            
 -mix;             
 -max_abs_x;       
 -max_abs_y;       
 -max_abs_z;    
 ..internals..
 -ID
 - -
 -efecto_fuzz_create()
 -efecto_fuzz_update()
 -efecto_fuzz_apply()
}

efectos -l- efectos_enum
efectos <|- - efecto_none
efectos <|- - efecto_mute
efectos <|- - efecto_atenuacion
efectos <|- - efecto_reverb
efectos <|- - efecto_overdrive
efectos <|- - efecto_distortion
efectos <|- - efecto_fuzz
}
@enduml

@startuml
skinparam BackgroundColor F9F9F9
skinparam shadowing false
skinparam RoundCorner 7
skinparam ArrowColor 191919
skinparam FontColor 191919
skinparam SequenceLifeLineBorderColor 393939
skinparam SequenceGroupHeaderFontColor 191919
skinparam SequenceGroupFontColor 393939
skinparam SequenceGroupBorderColor 393939
skinparam SequenceGroupBorderThickness 1

skinparam sequenceDivider {
    BorderColor 191919
    BorderThickness 1
    FontColor 191919
}

skinparam participant {
    BackgroundColor E55756
    BorderColor 191919
    FontColor F9F9F9
    BorderThickness 1.5
}

skinparam database {
    BackgroundColor A4DBD8
    BorderColor 191919
    FontColor 191919
}

skinparam entity {
    BackgroundColor EFBABC
    BorderColor 191919
    FontColor 191919
}

skinparam note {
    BackgroundColor e5e5e5
    BorderColor 191919
    FontColor 191919
    BorderThickness 1.5
}

skinparam actor {
    BackgroundColor 191919
    BorderColor 191919
    FontColor 191919
}

skinparam boundary {
    BackgroundColor EFBABC
    BorderColor 191919
    FontColor 191919
}

skinparam control {
    BackgroundColor EFBABC
    BorderColor 191919
    FontColor 191919
}

skinparam collections {
    BackgroundColor E55756
    BorderColor 191919
    FontColor 191919
    BorderThickness 1.5
}

skinparam queue {
    BackgroundColor E55756
    BorderColor 191919
    FontColor FFF
    BorderThickness 1.5
}

skinparam groupInheritance 3

package effects{
  
enum efectos_enum{
    EFECTO_NONE
    EFECTO_MUTE
    EFECTO_ATENUACION
    EFECTO_REVERB
    EFECTO_OVERDRIVE
    EFECTO_DISTORTION
    EFECTO_FUZZ
..
}

class efectos {
 #Nombre : efectos_enum
 #params : void *
 #internals : void * 
 +efecto_create()
 +efecto_destroy()
 +efecto_update()
 +efecto_apply()
}

class efecto_none {
 ..params:..
 ..internals..
 -ID
 - -
 -efecto_none_create()
 -efecto_none_apply()
}

class efecto_mute {
 ..params:..
 ..internals..
 -ID
 - -
 -efecto_mute_create()
 -efecto_mute_apply()
}

class efecto_atenuacion {
 ..params:..
 -atenuacion
 ..internals..
 -ID
 - -
 -efecto_atenuacion_create()
 -efecto_atenuacion_update()
 -efecto_atenuacion_apply()
}

class efecto_reverb {
 ..params:..
 -gain
 ..internals..
 -ID
 -z[640]
 -index
 - -
 -efecto_reverb_create()
 -efecto_reverb_update()
 -efecto_reverb_apply()
}

class efecto_overdrive {
 ..params:..
 ..internals..
 -ID
 - -
 -efecto_overdrive_create()
 -efecto_overdrive_apply()
}

class efecto_distortion {
 ..params:..
 -gain;            
 -mix;  
 ..internals..
 -ID
 - -
 -efecto_distortion_create()
 -efecto_distortion_apply()
}

class efecto_fuzz {
 ..params:..
 -gain;            
 -mix;             
 -max_abs_x;       
 -max_abs_y;       
 -max_abs_z;    
 ..internals..
 -ID
 - -
 -efecto_fuzz_create()
 -efecto_fuzz_update()
 -efecto_fuzz_apply()
}

efectos -l- efectos_enum
efectos <|- - efecto_none
efectos <|- - efecto_mute
efectos <|- - efecto_atenuacion
efectos <|- - efecto_reverb
efectos <|- - efecto_overdrive
efectos <|- - efecto_distortion
efectos <|- - efecto_fuzz
}
@enduml

PlantUML version 1.2022.14beta1(Unknown compile time)
(GPL source distribution)
Java Runtime: Java(TM) SE Runtime Environment
JVM: Java HotSpot(TM) 64-Bit Server VM
Default Encoding: UTF-8
Language: en
Country: US
--></g></svg>